<?xml version="1.0" standalone="no"?>
<!DOCTYPE svg PUBLIC "-//W3C//DTD SVG 20010904//EN"
 "http://www.w3.org/TR/2001/REC-SVG-20010904/DTD/svg10.dtd">
<svg version="1.0" xmlns="http://www.w3.org/2000/svg"
 width="107.000000pt" height="66.000000pt" viewBox="0 0 107.000000 66.000000"
 preserveAspectRatio="xMidYMid meet">

<g transform="translate(0.000000,66.000000) scale(0.100000,-0.100000)"
fill="#000000" stroke="none">
<path d="M105 640 c5 -17 2 -20 -24 -20 -63 0 -73 -44 -30 -134 24 -51 24 -53
-6 -60 -63 -16 -52 -85 25 -161 28 -27 50 -53 50 -57 0 -4 -13 -8 -28 -8 -84
0 -65 -82 34 -151 24 -16 42 -34 39 -40 -4 -5 10 -9 29 -9 20 0 36 2 36 4 0 3
-32 22 -71 42 -53 28 -75 46 -87 71 -20 41 -9 53 50 53 54 0 58 19 13 54 -73
58 -115 106 -115 132 0 30 32 45 74 33 16 -5 32 -7 34 -4 2 2 -14 32 -36 66
-67 102 -67 158 -2 124 43 -22 55 -10 40 44 -6 22 -15 41 -21 41 -6 0 -8 -9
-4 -20z"/>
<path d="M543 538 c7 -58 39 -123 72 -144 23 -15 27 -15 50 0 30 20 51 59 65
119 15 70 13 72 -96 72 l-96 0 5 -47z m72 -19 c4 -6 5 -13 2 -15 -7 -8 -57 7
-57 17 0 13 47 11 55 -2z m105 2 c0 -10 -50 -25 -57 -17 -3 2 -2 9 2 15 8 13
55 15 55 2z m-67 -81 c16 0 18 -3 10 -11 -14 -14 -63 -4 -63 12 0 6 7 8 16 5
9 -3 25 -6 37 -6z"/>
<path d="M458 553 c-19 -3 -28 -10 -28 -22 0 -26 52 -99 86 -122 44 -29 84
-23 53 8 -6 6 -19 9 -28 6 -12 -5 -13 -3 -4 7 8 9 8 20 -3 46 -8 18 -14 45
-14 59 0 26 -3 27 -62 18z m47 -53 c-3 -5 -15 -10 -26 -10 -11 0 -17 5 -14 10
3 6 15 10 26 10 11 0 17 -4 14 -10z"/>
<path d="M751 512 c-7 -26 -13 -57 -13 -69 0 -13 -4 -21 -8 -18 -4 2 -15 -4
-25 -15 -18 -19 -17 -20 10 -20 34 0 120 81 130 123 9 34 10 33 -41 40 l-41 7
-12 -48z m59 -17 c0 -13 -4 -14 -20 -5 -11 6 -20 13 -20 15 0 3 9 5 20 5 11 0
20 -7 20 -15z"/>
<path d="M835 457 c-16 -22 -34 -47 -40 -56 -5 -9 -18 -16 -27 -16 -32 0 -24
-20 10 -23 40 -4 136 38 151 66 11 21 -2 38 -44 60 -17 8 -24 4 -50 -31z m43
-28 c12 -18 11 -20 -5 -17 -10 2 -19 11 -21 21 -5 23 10 21 26 -4z"/>
<path d="M368 472 c-16 -9 -28 -22 -28 -28 0 -31 106 -86 158 -82 37 3 48 24
12 22 -11 0 -20 4 -20 10 -1 14 -75 96 -86 96 -5 0 -21 -8 -36 -18z m58 -38
c-3 -9 -6 -18 -6 -20 0 -2 -7 -4 -15 -4 -13 0 -14 4 -5 20 13 24 35 27 26 4z"/>
<path d="M432 289 c-17 -45 -22 -79 -13 -79 5 0 14 21 20 46 13 50 7 73 -7 33z"/>
<path d="M502 266 c-7 -27 -11 -50 -9 -53 8 -8 29 56 25 79 -3 17 -7 11 -16
-26z"/>
<path d="M685 300 c3 -5 8 -10 11 -10 2 0 4 5 4 10 0 6 -5 10 -11 10 -5 0 -7
-4 -4 -10z"/>
<path d="M724 255 c-10 -40 1 -50 13 -11 6 20 7 36 2 36 -5 0 -11 -11 -15 -25z"/>
<path d="M537 246 c-4 -15 -6 -31 -2 -34 10 -10 16 6 13 35 l-3 28 -8 -29z"/>
<path d="M687 256 c-4 -10 -7 -25 -6 -34 0 -11 4 -9 10 7 5 13 8 29 6 35 -2 5
-6 2 -10 -8z"/>
<path d="M770 256 c0 -8 -3 -23 -6 -33 -5 -12 -4 -15 3 -8 16 15 26 55 14 55
-6 0 -11 -6 -11 -14z"/>
<path d="M832 258 c-14 -14 -16 -35 -3 -42 5 -3 11 8 13 24 3 17 4 30 3 30 0
0 -6 -5 -13 -12z"/>
<path d="M576 243 c-4 -9 -2 -21 4 -27 7 -7 10 -2 10 17 0 31 -5 34 -14 10z"/>
<path d="M647 253 c-9 -9 -9 -43 1 -43 4 0 8 11 8 25 2 27 1 29 -9 18z"/>
<path d="M251 149 c-8 -26 -9 -45 -3 -51 6 -6 12 4 16 27 4 20 10 43 13 51 3
8 1 14 -4 14 -6 0 -15 -19 -22 -41z"/>
<path d="M787 163 c-11 -19 -18 -73 -9 -73 5 0 12 17 15 37 6 36 4 52 -6 36z"/>
<path d="M400 148 c0 -7 -3 -23 -6 -35 -4 -13 -2 -23 4 -23 12 0 22 59 10 66
-4 3 -8 -1 -8 -8z"/>
<path d="M975 150 c-3 -5 -1 -10 4 -10 6 0 11 5 11 10 0 6 -2 10 -4 10 -3 0
-8 -4 -11 -10z"/>
<path d="M356 124 c-9 -36 1 -43 14 -10 12 33 12 36 1 36 -5 0 -12 -12 -15
-26z"/>
<path d="M440 136 c0 -8 -3 -21 -6 -30 -3 -9 -2 -16 4 -16 5 0 12 13 14 30 3
17 1 30 -4 30 -4 0 -8 -6 -8 -14z"/>
<path d="M490 124 c0 -14 4 -23 9 -20 5 3 7 15 4 26 -7 28 -13 25 -13 -6z"/>
<path d="M550 130 c-6 -11 -8 -25 -5 -30 12 -19 20 -10 20 20 0 36 -1 36 -15
10z"/>
<path d="M620 136 c0 -8 -3 -23 -6 -33 -5 -12 -4 -15 3 -8 16 15 26 55 14 55
-6 0 -11 -6 -11 -14z"/>
<path d="M680 138 c0 -8 7 -21 15 -28 19 -16 19 -1 0 24 -12 16 -15 17 -15 4z"/>
<path d="M736 128 c-8 -31 -7 -38 3 -38 5 0 11 13 13 30 5 35 -7 41 -16 8z"/>
<path d="M819 129 c-7 -14 -7 -25 -1 -31 6 -6 11 1 14 21 5 36 3 38 -13 10z"/>
<path d="M856 128 c-8 -31 -7 -38 3 -38 5 0 11 13 13 30 5 35 -7 41 -16 8z"/>
<path d="M896 128 c-8 -31 -7 -38 3 -38 5 0 11 13 13 30 5 35 -7 41 -16 8z"/>
<path d="M941 118 c0 -28 2 -30 9 -13 12 28 12 45 0 45 -5 0 -10 -15 -9 -32z"/>
<path d="M1000 130 c-6 -11 -8 -25 -5 -30 11 -18 20 -10 21 20 1 35 -2 37 -16
10z"/>
</g>
</svg>
