<?xml version="1.0" standalone="no"?>
<!DOCTYPE svg PUBLIC "-//W3C//DTD SVG 20010904//EN"
 "http://www.w3.org/TR/2001/REC-SVG-20010904/DTD/svg10.dtd">
<svg version="1.0" xmlns="http://www.w3.org/2000/svg"
 width="134.000000pt" height="74.000000pt" viewBox="0 0 134.000000 74.000000"
 preserveAspectRatio="xMidYMid meet">

<g transform="translate(0.000000,74.000000) scale(0.100000,-0.100000)"
fill="#000000" stroke="none">
<path d="M671 682 c-15 -29 3 -115 38 -176 50 -89 113 -89 163 1 20 36 32 73
35 114 7 71 -2 82 -55 67 -37 -10 -123 -6 -154 6 -11 5 -20 1 -27 -12z m63
-62 c14 -5 26 -16 26 -25 0 -18 1 -18 -39 -4 -31 11 -37 19 -24 32 8 9 7 9 37
-3z m156 -9 c0 -12 -59 -32 -72 -25 -5 3 -4 12 3 20 13 15 69 19 69 5z m-50
-104 c0 -15 -50 -27 -75 -17 -39 15 -29 25 25 25 28 0 50 -3 50 -8z"/>
<path d="M531 636 c-28 -33 53 -145 127 -178 23 -11 47 -16 52 -13 17 10 -13
45 -40 45 -22 1 -23 2 -8 11 16 9 17 13 3 38 -8 16 -17 47 -21 70 l-7 41 -47
0 c-29 0 -52 -6 -59 -14z m93 -45 c3 -5 -8 -14 -24 -20 -24 -8 -30 -7 -30 4 0
21 43 34 54 16z"/>
<path d="M940 633 c-1 -10 -9 -42 -19 -71 -17 -48 -17 -53 -2 -62 13 -8 11 -9
-11 -10 -26 0 -57 -34 -44 -47 8 -9 67 15 102 42 42 32 87 107 82 137 -3 20
-10 23 -55 26 -45 3 -53 0 -53 -15z m60 -48 c7 -9 11 -18 8 -21 -8 -8 -58 18
-52 27 8 14 30 10 44 -6z"/>
<path d="M469 559 c-58 -29 -66 -45 -39 -74 54 -58 184 -95 229 -66 12 8 9 12
-13 22 -23 11 -29 10 -37 -2 -7 -11 -9 -10 -9 7 0 11 -10 29 -21 40 -12 10
-34 35 -48 55 l-27 36 -35 -18z m51 -59 c0 -10 -9 -24 -20 -30 -24 -13 -27 0
-8 30 16 25 28 26 28 0z"/>
<path d="M1052 547 c-12 -18 -32 -43 -46 -56 -14 -14 -26 -33 -26 -44 0 -16
-3 -17 -14 -8 -11 9 -20 10 -36 1 -32 -17 -14 -30 40 -30 58 0 151 40 180 78
23 29 18 38 -39 70 l-39 22 -20 -33z m48 -74 c0 -11 -4 -11 -20 -3 -11 6 -20
20 -20 32 0 20 1 21 20 3 11 -10 20 -24 20 -32z"/>
</g>
</svg>
